<svg xmlns="http://www.w3.org/2000/svg"><defs><style>.fil1 {fill:#FEFEFE}</style></defs><symbol id="BackArrow_16x16" viewBox="0 0 16 16"><path d="M16 0v16L0 8.2"/></symbol><symbol id="Ex_16x16" viewBox="0 0 16 16"><path d="M9.8 8l5.9-5.9c.5-.5.5-1.3 0-1.8s-1.3-.5-1.8 0L8 6.2 2.1.4C1.6-.1.8-.1.3.4s-.5 1.3 0 1.8L6.2 8 .3 13.9c-.5.5-.5 1.3 0 1.8s1.3.5 1.8 0L8 9.8l5.9 5.9c.5.5 1.3.5 1.8 0s.5-1.3 0-1.8L9.8 8z"/></symbol><symbol id="FCS_16x16" viewBox="0 0 16 16"><path d="M1.1 3.5h3.8V5H2.8v2.2h2v1.4h-2v3.6H1.1V3.5zM10.2 12.2c-.2.1-.7.2-1.3.2-2.2 0-3.3-1.8-3.3-4.3 0-3.3 1.8-4.6 3.5-4.6.6 0 1 .1 1.2.2L10 5.1c-.1-.1-.4-.2-.7-.2-1 0-1.8.8-1.8 3 0 2.1.8 2.9 1.8 2.9.3 0 .6-.1.8-.1l.1 1.5zM11.1 10.5c.4.2.9.3 1.4.3.8 0 1.2-.4 1.2-1s-.4-.9-1.1-1.4c-1.2-.7-1.7-1.7-1.7-2.4 0-1.4.9-2.6 2.8-2.6.6 0 1.1.2 1.4.3l-.3 1.5c-.2-.2-.6-.3-1.1-.3-.7 0-1.1.4-1.1.9s.3.8 1.2 1.4c1.2.7 1.6 1.6 1.6 2.5 0 1.6-1.2 2.7-2.9 2.7-.7 0-1.4-.2-1.7-.4l.3-1.5z"/></symbol><symbol id="TSV_16x16" viewBox="0 0 16 16"><path d="M1.8 5.1H.3V3.5h4.8v1.6H3.5v7.2H1.8V5.1zM5.6 10.5c.4.2.9.3 1.4.3.8 0 1.2-.4 1.2-1s-.4-.9-1.1-1.4C5.9 7.7 5.5 6.8 5.5 6c0-1.4.9-2.6 2.8-2.6.6 0 1.1.2 1.4.3l-.4 1.5c-.2-.2-.6-.3-1.1-.3-.7 0-1.1.4-1.1.9s.3.8 1.2 1.4c1.2.7 1.6 1.6 1.6 2.5 0 1.6-1.2 2.7-2.9 2.7-.7 0-1.4-.2-1.7-.4l.3-1.5zM12 12.3l-2-8.8h1.9l.6 3.8c.2.9.3 2 .5 3 .1-1 .3-2.1.4-3.1l.6-3.7h1.9l-2 8.8H12z"/></symbol><symbol id="Trash_16x16" viewBox="0 0 16 16"><path d="M11.1 13H4.9c-.5 0-.9-.4-.9-.8V5.9c0-.5.4-.9.9-.9h6.3c.4 0 .8.4.8.9v6.3c0 .4-.4.8-.9.8zM12.4 4H3.6c-.3 0-.6-.3-.6-.6v-.8c0-.3.3-.6.6-.6h8.8c.3 0 .6.3.6.6v.8c0 .3-.3.6-.6.6z"/><path d="M8.9 3H7.1c-.3 0-.6-.3-.6-.6v-.8c0-.3.3-.6.6-.6h1.8c.3 0 .6.3.6.6v.8c0 .3-.3.6-.6.6z"/></symbol><symbol id="UpRightArrow_16x16" viewBox="0 0 16 16"><path d="M15 9l-3-3v3H7V4h3L7 1 4 4h2v5c0 .3.7 1 1 1h5v2l3-3z"/></symbol><symbol id="clipboard" viewBox="0 0 20.9736 29.6858"><path class="fil0" d="M1.906 2.992h5.59C7.495 1.34 8.833 0 10.485 0c1.654 0 2.993 1.34 2.993 2.992h5.587c1.05 0 1.907.857 1.907 1.906v22.88c0 1.05-.858 1.908-1.907 1.908H1.907C.856 29.686 0 28.828 0 27.78V4.897c0-1.05.858-1.906 1.906-1.906z"/><path class="fil1" d="M10.487.895c1.158 0 2.097.94 2.097 2.097 0 .382.214.74.355 1.05h.074c.247 0 .46.158.538.38h2.56c.89 0 1.62.73 1.62 1.62l-.025 1.734L3.265 7.76 3.24 6.042c0-.892.73-1.62 1.622-1.62h2.56c.08-.222.29-.382.538-.382h.075c.14-.307.355-.666.355-1.048 0-1.158.94-2.097 2.097-2.097zm0 1.046c.526 0 .953.428.953.955 0 .527-.427.953-.953.953-.527 0-.953-.426-.953-.953 0-.527.426-.954.953-.954zM2.908 10.855h1.546v1.05H2.908v-1.05zm2.976 0h12.18v1.05H5.885v-1.05zM2.908 15.447h1.546v1.05H2.908v-1.05zm2.976 0h12.18v1.05H5.885v-1.05zM2.908 20.037h1.546v1.05H2.908v-1.05zm2.976 0h12.18v1.05H5.885v-1.05zM2.908 24.628h1.546v1.05H2.908v-1.05zm2.976 0h12.18v1.05H5.885v-1.05z"/></symbol><symbol id="copy" viewBox="0 0 100 100"><path d="M87.036 21.754L72.372 6.404c-.745-.78-1.776-1.22-2.852-1.22H38.418c-2.178 0-3.944 1.765-3.944 3.943V19.99h-18.66c-2.177 0-3.943 1.765-3.943 3.943v67.305c0 2.178 1.767 3.944 3.945 3.944h45.767c2.178 0 3.944-1.766 3.944-3.944V80.376h18.657c2.178 0 3.944-1.766 3.944-3.944V24.478c0-1.015-.39-1.99-1.09-2.724zm-7.2 3.88H68.16v-12.22l11.675 12.22zM57.638 41.167H44.986V27.878h.23l12.42 13.242v.046zM19.76 87.294V27.878h21.283v15.26c0 1.09.882 1.972 1.972 1.972H57.64v42.183H19.76zm45.767-14.807V39.56c0-1.002-.38-1.967-1.067-2.698L49.804 21.235c-.745-.795-1.787-1.246-2.877-1.246h-4.565v-6.92h21.854v14.537c0 1.09.882 1.972 1.972 1.972H80.24v42.906H65.527z"/></symbol><symbol id="gate-ellipse" viewBox="0 0 16 16"><ellipse transform="rotate(22.927 8 7.5)" fill="none" stroke="#333" stroke-miterlimit="10" cx="8" cy="7.5" rx="6.5" ry="4"/></symbol><symbol id="gate-polygon" viewBox="0 0 16 16"><path fill="none" stroke="#333" stroke-miterlimit="10" d="M10.8 11.8l-9.3-.3L3 4l6.9-1.7 4.8 2.9z"/></symbol><symbol id="gate-quadrant" viewBox="0 0 16 16"><path fill="none" stroke="#333" stroke-miterlimit="10" d="M6.5 1v12M3 8.5h11"/></symbol><symbol id="gate-range" viewBox="0 0 16 16"><path fill="none" stroke="#333" stroke-miterlimit="10" d="M2.5 1v12M12.5 1v12"/><path fill="none" stroke="#333" stroke-miterlimit="10" stroke-dasharray="1,1" d="M3 6.5h9"/></symbol><symbol id="gate-rectangle" viewBox="0 0 16 16"><path fill="none" stroke="#333" stroke-miterlimit="10" d="M1.5 3.5h13v8h-13z"/></symbol><symbol id="gate-split" viewBox="0 0 16 16"><path fill="none" stroke="#333" stroke-miterlimit="10" d="M7.5 1v12"/><path fill="none" stroke="#333" stroke-miterlimit="10" stroke-dasharray="1,1" d="M2 6.5h11"/></symbol><symbol id="gate" viewBox="0 0 80 80"><path d="M17.597 20.197l-2.826 4.578c-.004 0-.03-.004-.035 0-.003.004 0 .03 0 .036v1.932c.695.63 1.145 1.568 1.145 2.61 0 1.044-.45 1.982-1.145 2.612V64.8c0 .012.026.035.036.035h5.688c.01 0 .036-.023.036-.036V31.64c-.525-.608-.858-1.407-.858-2.29 0-.88.333-1.68.858-2.288V24.81c0-.006-.032-.03-.036-.035l-2.86-4.578zM25.843 15.432l-2.826 4.58c-.005 0-.032-.005-.036 0-.002.003 0 .028 0 .034v1.932c.696.63 1.146 1.568 1.146 2.61 0 1.044-.45 1.982-1.145 2.612v37.635c0 .013.027.036.037.036h5.687c.01 0 .036-.022.036-.035V26.878c-.525-.608-.86-1.407-.86-2.29 0-.88.335-1.68.86-2.288v-2.254c0-.006-.032-.03-.036-.035zM34.124 10.597L31.3 15.175c-.007 0-.034-.004-.037 0-.004.004 0 .03 0 .036v1.932c.695.63 1.144 1.568 1.144 2.61 0 1.044-.45 1.982-1.144 2.612V64.8c0 .012.025.035.036.035h5.686c.01 0 .035-.023.035-.036V22.04c-.524-.608-.857-1.407-.857-2.29 0-.88.333-1.68.858-2.288V15.21c0-.006-.03-.03-.034-.035zM42.334 10.632l-2.825 4.58c-.007 0-.034-.005-.037 0-.004.003 0 .028 0 .034v1.932c.695.63 1.144 1.568 1.144 2.61 0 1.044-.45 1.982-1.144 2.612v42.435c0 .013.025.036.036.036h5.686c.01 0 .035-.022.035-.035V22.078c-.524-.608-.857-1.407-.857-2.29 0-.88.333-1.68.858-2.288v-2.254c0-.006-.03-.03-.034-.035zM50.616 15.397l-2.826 4.578c-.005 0-.032-.004-.036 0-.003.004 0 .03 0 .036v1.932c.695.63 1.145 1.568 1.145 2.61 0 1.044-.45 1.982-1.146 2.612V64.8c0 .012.026.035.036.035h5.687c.01 0 .036-.023.036-.036V26.84c-.525-.608-.86-1.407-.86-2.29 0-.88.335-1.68.86-2.288V20.01c0-.006-.032-.03-.036-.035zM58.86 20.232l-2.824 4.58c-.006 0-.033-.005-.036 0-.003.003 0 .028 0 .034v1.932c.695.63 1.145 1.568 1.145 2.61 0 1.044-.45 1.982-1.145 2.612v32.835c0 .013.025.036.036.036h5.687c.01 0 .036-.022.036-.035V31.678c-.526-.608-.86-1.407-.86-2.29 0-.88.334-1.68.86-2.288v-2.254c0-.006-.034-.03-.037-.035l-2.862-4.578z"/><path d="M13.157 33.93H62.75c.005 0 .01.006.01.012v3.96c0 .006-.005.01-.01.01H13.158c-.004 0-.008-.004-.008-.01v-3.96c0-.006.003-.01.007-.01zM13.157 55.678H62.81c.003 0 .006.005.006.01v3.96c0 .007-.004.012-.007.012H13.156c-.004 0-.008-.005-.008-.01v-3.962c0-.005.003-.01.007-.01z"/><path d="M15.073 56.546L60 35.543c.005-.002.01 0 .012.006l1.677 3.587c.002.005 0 .01-.003.012L16.76 60.15c-.005.002-.01 0-.012-.006l-1.677-3.588c-.002-.005 0-.01.003-.012z"/><path d="M11.53 33.285h1.78v5.274h-1.78z" overflow="visible" color="#000"/><path d="M12.4 32.722c.222 0 .4.178.4.4v5.6c0 .222-.178.4-.4.4-.222 0-.4-.178-.4-.4v-5.6c0-.222.178-.4.4-.4zM11.53 55.032h1.78v5.274h-1.78z" overflow="visible" color="#000"/><path d="M12.4 54.47c.222 0 .4.177.4.4v5.6c0 .22-.178.4-.4.4-.222 0-.4-.18-.4-.4v-5.6c0-.223.178-.4.4-.4zM62.03 35.518h2.02v.808h-2.02z" overflow="visible" color="#000"/><path d="M64.857 35.922c0 .446-.36.808-.807.808-.447 0-.808-.362-.808-.808 0-.446.36-.808.808-.808.446 0 .807.362.807.808z" overflow="visible" color="#000"/></symbol><symbol id="gate2" viewBox="0 0 100 100"><path class="st0" d="M89.2 45.5h3.7c1.2 0 2.1-1 2.1-2.1V32.6c0-1.2-1-2.1-2.1-2.1h-4.1c-1.1-7.3-4.8-13.7-10.1-18.3-1.4-1.2-3.5-.2-3.5 1.6v16.6H69V10.9c0-.7-.4-1.5-1-1.8-4.4-2.5-9.5-4-15-4v25.5h-5.7V7.2c0-1.2-1-2.2-2.3-2.1-4.1.3-8 1.5-11.6 3.3-.7.4-1.1 1.1-1.1 1.9v20.2h-6.2V13.1c0-1.8-2.1-2.8-3.4-1.7-5.9 4.6-10 11.4-11.2 19.1H7.1c-1.2 0-2.1 1-2.1 2.1v10.7c0 1.2 1 2.1 2.1 2.1h4v27.1h-4c-1.2 0-2.1 1-2.1 2.1v10.7c0 1.2 1 2.1 2.1 2.1h4v5.4c0 1.2 1 2.1 2.1 2.1H24c1.2 0 2.1-1 2.1-2.1v-5.4h6.2v5.4c0 1.2 1 2.1 2.1 2.1h10.7c1.2 0 2.1-1 2.1-2.1v-5.4H53v5.4c0 1.2 1 2.1 2.1 2.1h11.7c1.2 0 2.1-1 2.1-2.1v-5.4h6.2v5.4c0 1.2 1 2.1 2.1 2.1H87c1.2 0 2.1-1 2.1-2.1v-5.4h3.7c1.2 0 2.1-1 2.1-2.1V74.6c0-1.2-1-2.1-2.1-2.1h-3.7v-27zm-63 27v-27h6.2v27h-6.2zm21.1 0v-27H53v27h-5.7zm21.7 0v-27h6.2v27H69z"/></symbol><symbol id="gear" viewBox="0 0 100 100"><path d="M-192 0H-7v99h-185zM0-36h100v30H0z"/><text transform="translate(66 -19.5)" font-family="&apos;Helvetica&apos;" font-size="2.4">http://thenounproject.com</text><text transform="translate(7.166 -24.5)"><tspan x="0" y="0" font-family="&apos;Helvetica-Bold&apos;" font-size="6.158">The Noun Project</tspan><tspan x="1.12" y="4.8" font-family="&apos;Helvetica-Bold&apos;" font-size="4">Icon Template</tspan></text><text transform="translate(-178.5 10.5)" font-family="&apos;Helvetica-Bold&apos;" font-size="6.158">Reminders</text><path stroke="#FFF" stroke-miterlimit="10" d="M8-14.5h10M-179 16.5h17"/><path d="M-170.802 31.318h8.72v8.642h-8.72z"/><path d="M-164.455 42.312h4.747V37.61h-4.747v4.702zm5.19.437h-5.63v-5.58h5.63v5.58zm-6.956 1.312h8.278V35.86h-8.28v8.202zm8.72.438h-9.163v-9.08h9.163v9.08z"/><path d="M-166.15 44.133l-.142-.142 8.28-8.203.14.142"/><path fill="none" d="M-179 58h35v32.5h-35z"/><text transform="translate(-179 60.157)"><tspan x="0" y="0" font-family="&apos;Helvetica-Bold&apos;" font-size="3">Strokes</tspan><tspan x="0" y="5" font-family="&apos;Helvetica&apos;" font-size="2.4">Try to keep strokes at 4px</tspan><tspan x="0" y="10" font-family="&apos;Helvetica&apos;" font-size="2.4">Minimum stroke weight is 2px</tspan><tspan x="0" y="14.5" font-family="&apos;Helvetica&apos;" font-size="2.4">For thicker strokes use even </tspan><tspan x="0" y="17.5" font-family="&apos;Helvetica&apos;" font-size="2.4">numbers: 6px, 8px etc.</tspan><tspan x="0" y="22" font-family="&apos;Helvetica-Bold&apos;" font-size="2.4">Remember to expand strokes </tspan><tspan x="0" y="25" font-family="&apos;Helvetica-Bold&apos;" font-size="2.4">before saving as an SVG</tspan></text><path fill="none" d="M-136.5 58h35v32.5h-35z"/><text transform="translate(-136.5 60.157)"><tspan x="0" y="0" font-family="&apos;Helvetica-Bold&apos;" font-size="3">Size</tspan><tspan x="0" y="5" font-family="&apos;Helvetica&apos;" font-size="2.4">Cannot be wider or taller than </tspan><tspan x="0" y="8.5" font-family="&apos;Helvetica&apos;" font-size="2.4">100px (artboard size)</tspan><tspan x="0" y="13.5" font-family="&apos;Helvetica&apos;" font-size="2.4">Scale your icon to fill as much of </tspan><tspan x="0" y="16.5" font-family="&apos;Helvetica&apos;" font-size="2.4">the artboard as possible</tspan></text><path fill="none" d="M-94 58h35v32.5h-35z"/><text transform="translate(-94 60.157)"><tspan x="0" y="0" font-family="&apos;Helvetica-Bold&apos;" font-size="3">Ungroup</tspan><tspan x="0" y="5" font-family="&apos;Helvetica&apos;" font-size="2.4">If your design has more than one </tspan><tspan x="0" y="8" font-family="&apos;Helvetica&apos;" font-size="2.4">shape, make sure to ungroup</tspan></text><path fill="none" d="M-50 58h35v32.5h-35z"/><text transform="translate(-50 60.157)"><tspan x="0" y="0" font-family="&apos;Helvetica-Bold&apos;" font-size="3">Save as</tspan><tspan x="0" y="5" font-family="&apos;Helvetica&apos;" font-size="2.4">Save as .SVG and make sure </tspan><tspan x="0" y="8" font-family="&apos;Helvetica&apos;" font-size="2.4">&#x201C;Use Artboards&#x201D; is checked</tspan></text><text transform="matrix(1.0074 0 0 1 -125.542 30.593)" font-family="&apos;Helvetica&apos;" font-size="2.573">100px</text><text transform="matrix(1.0074 0 0 1 -41 39)" font-family="&apos;Helvetica-Bold&apos;" font-size="5.146">.SVG</text><path d="M-126.514 34.815h10.26V45h-10.26zM-126.477 31.766h.522v2.337h-.522zM-116.812 31.766h.523v2.337h-.522z"/><path d="M-127 32.337h11.233v.572H-127zM-83.805 33.844H-73.5V44h-10.305zM-76.81 28.707h3.31v3.26h-3.31z"/><path stroke="#FFF" stroke-miterlimit="10" d="M-178.5 22.5h30v30h-30zM-136.5 22.5h30v30h-30zM-93.5 22.5h30v30h-30zM-49.5 22.5h30v30h-30z"/><g><path d="M21.414 1.78c-1.42.16-1.383 1.25-1.33 3.28.053 2.02-.343 3.84-2.052 4.842-.325.167-.648.333-.964.516-.02.01-.03.008-.05.017-1.77.922-3.523.286-5.21-.847-1.684-1.13-2.59-1.75-3.483-.63l-1.723 2.15c-.014.02-.023.03-.04.05-1.44 1.8-.835 1.05-1.72 2.153-.896 1.12-.093 1.868 1.378 3.264 1.458 1.38 2.455 2.937 1.983 4.834-.118.35-.22.706-.314 1.065-.01.03-.026.037-.037.07-.598 1.902-2.292 2.69-4.28 3.082-1.993.39-3.068.593-2.91 2.017.156 1.408.048.45.303 2.74.003.022.004.036.01.065.253 2.287.145 1.33.3 2.737.16 1.423 1.254 1.383 3.282 1.332 2.016-.055 3.833.34 4.838 2.046.165.324.335.652.52.966.007.024.004.036.017.057.918 1.765.28 3.523-.848 5.203-1.13 1.688-1.746 2.59-.635 3.487 1.115.884.36.283 2.153 1.724.014.008.02.016.034.026.006.004.01.008.015.014 1.798 1.436 1.047.83 2.16 1.718 1.115.892 1.866.095 3.26-1.378 1.38-1.464 2.947-2.467 4.85-1.977.342.11.688.21 1.037.302.035.014.045.033.082.044 1.897.596 2.69 2.29 3.077 4.28.397 1.99.6 3.062 2.02 2.91 1.41-.16.452-.052 2.74-.302.017 0 .023-.002.04-.004.008 0 .013 0 .024-.002 2.288-.258 1.327-.156 2.74-.31 1.42-.16 1.388-1.254 1.33-3.28-.057-2.028.342-3.854 2.064-4.852.32-.163.633-.325.94-.504.022-.01.037-.006.06-.02 1.77-.918 3.525-.28 5.208.85 1.688 1.127 2.59 1.743 3.484.632.884-1.11.284-.358 1.723-2.154.013-.013.016-.02.03-.032.004-.007.004-.012.012-.017 1.437-1.8.832-1.05 1.722-2.156.89-1.117.092-1.865-1.38-3.263-1.467-1.387-2.475-2.954-1.975-4.867.107-.334.205-.672.295-1.013.014-.037.034-.047.046-.092.6-1.896 2.293-2.686 4.28-3.077 1.99-.396 3.067-.598 2.912-2.017-.16-1.41-.054-.453-.302-2.74-.004-.016-.002-.025-.004-.04 0-.01-.003-.016-.005-.025-.256-2.29-.152-1.328-.31-2.74-.156-1.422-1.25-1.385-3.28-1.33-2.028.056-3.853-.343-4.85-2.067-.003 0-.003 0-.003-.003-.165-.315-.323-.628-.5-.933-.01-.023-.008-.04-.022-.064-.916-1.768-.282-3.523.85-5.208 1.126-1.686 1.746-2.59.632-3.485-1.11-.885-.358-.283-2.15-1.72-.02-.015-.027-.023-.045-.034 0-.004-.004-.002-.007-.007-1.796-1.438-1.048-.834-2.157-1.72-1.116-.893-1.862-.094-3.262 1.378-1.382 1.47-2.95 2.47-4.858 1.974-.338-.106-.68-.205-1.022-.296-.036-.014-.047-.033-.086-.044-1.9-.6-2.69-2.292-3.08-4.283-.392-1.99-.597-3.063-2.017-2.908l-2.802.312c-2.288.255-1.33.15-2.74.306zM36.88 26.46c.603 5.43-3.313 10.322-8.742 10.925-5.43.603-10.325-3.312-10.927-8.74-.6-5.437 3.313-10.327 8.743-10.93 5.433-.604 10.323 3.31 10.928 8.744zM54.857 38.588c-1.588.606-1.217 1.854-.556 4.168.67 2.306.757 4.517-.908 6.178-.327.29-.645.577-.953.88-.023.02-.034.02-.056.035-1.763 1.587-3.967 1.374-6.24.58-2.273-.798-3.5-1.238-4.192.312-.692 1.54-.227.494-1.338 2.988-.013.025-.02.04-.033.072-1.117 2.492-.652 1.448-1.336 2.983-.694 1.553.45 2.175 2.56 3.34 2.09 1.155 3.7 2.645 3.716 4.968-.028.437-.04.877-.04 1.317-.005.035-.022.052-.022.09-.12 2.366-1.83 3.775-4.002 4.82-2.17 1.044-3.352 1.602-2.744 3.187.6 1.572.19.502 1.168 3.06.007.026.014.044.026.07.97 2.56.564 1.486 1.165 3.055.608 1.593 1.857 1.224 4.172.556 2.304-.665 4.507-.752 6.172.904.288.33.575.652.885.96.02.023.017.04.04.062 1.576 1.756 1.37 3.967.574 6.233-.796 2.276-1.233 3.5.31 4.196 1.543.685.497.218 2.99 1.34l.046.024.025.008c2.492 1.117 1.448.644 2.99 1.337 1.548.688 2.168-.452 3.336-2.562 1.153-2.093 2.654-3.713 4.99-3.72.424.026.852.042 1.276.038.046.006.062.027.11.027 2.36.124 3.775 1.835 4.817 4.002 1.045 2.17 1.6 3.348 3.188 2.746 1.573-.604.507-.196 3.062-1.17.016-.004.025-.008.04-.014.013-.005.02-.007.03-.013 2.552-.974 1.484-.573 3.06-1.168 1.585-.605 1.22-1.855.55-4.17-.67-2.313-.758-4.53.928-6.193.315-.283.63-.562.927-.858.023-.026.04-.02.07-.046 1.756-1.58 3.964-1.37 6.238-.575 2.272.793 3.498 1.233 4.19-.315.686-1.538.22-.49 1.345-2.985l.016-.044c.006-.01.008-.02.012-.026 1.115-2.497.644-1.45 1.335-2.99.69-1.55-.448-2.172-2.56-3.34-2.1-1.157-3.724-2.657-3.722-5.005.026-.418.04-.832.04-1.252.006-.046.025-.067.027-.117.124-2.362 1.833-3.77 4.005-4.813 2.164-1.05 3.345-1.605 2.745-3.19-.603-1.573-.198-.505-1.168-3.063-.007-.016-.01-.025-.02-.043 0-.01-.005-.02-.01-.026-.978-2.554-.57-1.48-1.168-3.06-.606-1.583-1.854-1.216-4.173-.55-2.312.674-4.535.756-6.188-.927l-.007-.002c-.282-.314-.56-.625-.854-.92-.02-.025-.02-.045-.042-.07-1.584-1.756-1.374-3.965-.577-6.24.796-2.273 1.233-3.496-.31-4.19l-2.988-1.343c-.022-.006-.038-.014-.062-.024 0-.005-.004-.004-.008-.004-2.497-1.123-1.454-.647-2.99-1.338-1.552-.694-2.174.45-3.34 2.557-1.15 2.097-2.655 3.72-5 3.72-.418-.025-.84-.037-1.267-.036-.044-.006-.058-.026-.104-.027-2.367-.123-3.78-1.83-4.822-4.003-1.044-2.173-1.602-3.343-3.186-2.744-1.592.61-.47.18-3.13 1.196-2.548.97-1.48.566-3.055 1.162zm25.14 23.76c2.315 6.064-.73 12.856-6.794 15.17-6.06 2.31-12.854-.73-15.166-6.792-2.315-6.066.727-12.86 6.79-15.172 6.065-2.312 12.858.727 15.17 6.793z"/></g></symbol><symbol id="logout" viewBox="0 0 100 100"><path fill-rule="evenodd" clip-rule="evenodd" d="M95 42.597L72.542 65.055V50.083H57.57V35.11h14.972V20.14L95 42.596zM57.57 12.652H12.653l29.942 14.973v44.917H57.57V57.57h7.484v22.46H42.596V95L5.166 72.542V5.167h59.89v22.458H57.57V12.652z"/></symbol><symbol id="share" viewBox="0 0 95.421 90.213"><path d="M6.3 90.21c-3.482 0-6.298-2.816-6.3-6.297v-65.52c.002-3.48 2.818-6.296 6.3-6.298h33.783l-9.003 9H9v60.117l57.47.002v-12.09l9-9v23.79c-.004 3.478-2.82 6.295-6.3 6.3L6.3 90.21z"/><path d="M66.17 11.3V0l29.25 29.25-29.374 29.375v-11.75S51.46 43.98 36.463 53.333c-8.21 5.084-13.752 11.773-17.167 17.042 0 0 1.11-18.25 11.61-34.875C44.033 14.716 66.17 11.3 66.17 11.3zM225.3 90.21c-3.482 0-6.3-2.816-6.3-6.297v-65.52c0-3.48 2.817-6.296 6.3-6.298h33.783l-9.004 9H228v60.117l57.47.002v-12.09l9.002-9-.002 23.79c-.003 3.478-2.818 6.295-6.3 6.3l-62.87-.003z"/><path d="M285.17 11.3V0l29.25 29.25-29.374 29.375v-11.75s-17.23-1.192-29.584 6.458c-8.21 5.084-13.104 10.167-17.166 17.042 0 0 1.11-18.25 11.61-34.875 13.127-20.784 35.265-24.2 35.265-24.2z"/></symbol><symbol id="tags" viewBox="0 0 100 100"><path fill-rule="evenodd" clip-rule="evenodd" d="M57.218 6.057L57 6 10.36 52.726c-1.17 1.172-1.17 3.07 0 4.243l28.284 28.283c1.172 1.17 3.07 1.17 4.243 0L90 38V6l-32.782.057zM30.158 56.97c-1.17-1.173-1.17-3.072 0-4.244l31.82-31.82c1.172-1.17 3.072-1.17 4.243 0 1.173 1.172 1.173 3.07 0 4.243L34.4 56.97c-1.17 1.17-3.07 1.17-4.24 0zm44.55-23.336l-31.82 31.82c-1.172 1.17-3.072 1.17-4.244 0-1.17-1.172-1.17-3.07 0-4.243l31.82-31.818c1.172-1.172 3.07-1.172 4.242 0 1.173 1.17 1.173 3.07 0 4.242zm7.777-14.85c-1.562 1.563-4.095 1.563-5.657 0-1.563-1.562-1.563-4.095 0-5.656 1.563-1.563 4.096-1.563 5.657 0 1.562 1.56 1.562 4.095 0 5.656z"/><path d="M47.13 88.08l12.728 5.658s3.536 2.12 6.364-3.536l18.385-39.598L47.13 88.08z"/></symbol><symbol id="user" viewBox="0 0 100 100"><path d="M69.4 40.5C69.9 29.7 61.2 21 50 21s-19.9 8.7-19.4 19.5C31 51.3 39.7 60 50 60s19-8.7 19.4-19.5zm9.8 38.3v-1.7c0-7.7-6.2-13.9-13.9-13.9H34.8c-7.7 0-13.9 6.2-13.9 13.9v1.7C28.3 86.3 38.6 91 50 91s21.7-4.7 29.2-12.2zM50 91C27.4 91 9 72.6 9 50S27.4 9 50 9s41 18.4 41 41-18.4 41-41 41zm0 4c24.9 0 45-20.1 45-45S74.9 5 50 5 5 25.1 5 50s20.1 45 45 45z"/></symbol></svg>