<?xml version="1.0" encoding="utf-8"?>
<!-- Generator: Adobe Illustrator 19.0.1, SVG Export Plug-In . SVG Version: 6.00 Build 0)  -->
<svg version="1.1" id="Layer_1" xmlns="http://www.w3.org/2000/svg" xmlns:xlink="http://www.w3.org/1999/xlink" x="0px" y="0px"
	 viewBox="0 0 16 16" enable-background="new 0 0 16 16" xml:space="preserve">
<path d="M9.8,8l5.9-5.9c0.5-0.5,0.5-1.3,0-1.8s-1.3-0.5-1.8,0L8,6.2L2.1,0.4c-0.5-0.5-1.3-0.5-1.8,0s-0.5,1.3,0,1.8
	L6.2,8l-5.9,5.9c-0.5,0.5-0.5,1.3,0,1.8s1.3,0.5,1.8,0L8,9.8l5.9,5.9c0.5,0.5,1.3,0.5,1.8,0s0.5-1.3,0-1.8L9.8,8z"/>
<g>
</g>
<g>
</g>
<g>
</g>
<g>
</g>
<g>
</g>
<g>
</g>
<g>
</g>
<g>
</g>
<g>
</g>
<g>
</g>
<g>
</g>
<g>
</g>
<g>
</g>
<g>
</g>
<g>
</g>
</svg>
