<svg xmlns="http://www.w3.org/2000/svg" xmlns:xlink="http://www.w3.org/1999/xlink" version="1.1" x="0px" y="0px" viewBox="0 0 100 100" style="enable-background:new 0 0 100 100;" xml:space="preserve"><path class="st0" d="M89.2,45.5h3.7c1.2,0,2.1-1,2.1-2.1V32.6c0-1.2-1-2.1-2.1-2.1h-4.1c-1.1-7.3-4.8-13.7-10.1-18.3  c-1.4-1.2-3.5-0.2-3.5,1.6v16.6H69V10.9c0-0.7-0.4-1.5-1-1.8c-4.4-2.5-9.5-4-15-4v25.5h-5.7V7.2C47.3,6,46.3,5,45,5.1  C40.9,5.4,37,6.6,33.4,8.4c-0.7,0.4-1.1,1.1-1.1,1.9v20.2h-6.2V13.1c0-1.8-2.1-2.8-3.4-1.7c-5.9,4.6-10,11.4-11.2,19.1H7.1  c-1.2,0-2.1,1-2.1,2.1v10.7c0,1.2,1,2.1,2.1,2.1h4V50v22.5h-4c-1.2,0-2.1,1-2.1,2.1v10.7c0,1.2,1,2.1,2.1,2.1h4v5.4  c0,1.2,1,2.1,2.1,2.1H24c1.2,0,2.1-1,2.1-2.1v-5.4h6.2v5.4c0,1.2,1,2.1,2.1,2.1h10.7c1.2,0,2.1-1,2.1-2.1v-5.4H53v5.4  c0,1.2,1,2.1,2.1,2.1h11.7c1.2,0,2.1-1,2.1-2.1v-5.4h6.2v5.4c0,1.2,1,2.1,2.1,2.1H87c1.2,0,2.1-1,2.1-2.1v-5.4h3.7  c1.2,0,2.1-1,2.1-2.1V74.6c0-1.2-1-2.1-2.1-2.1h-3.7V50V45.5z M26.2,72.5v-27h6.2v27H26.2z M47.3,72.5v-27H53v27H47.3z M69,72.5v-27  h6.2v27H69z"></path></svg>