<svg xmlns="http://www.w3.org/2000/svg" xmlns:xlink="http://www.w3.org/1999/xlink" version="1.1" x="0px" y="0px" viewBox="0 0 100 100" enable-background="new 0 0 100 100" xml:space="preserve"><g enable-background="new    "><g><g><path fill-rule="evenodd" clip-rule="evenodd" d="M57.218,6.057L57,6L10.36,52.726c-1.171,1.172-1.171,3.071,0,4.243     l28.284,28.284c1.172,1.171,3.071,1.171,4.243,0L90,38V6L57.218,6.057z M30.159,56.969c-1.171-1.172-1.171-3.071,0-4.243     l31.819-31.819c1.172-1.172,3.072-1.172,4.243,0c1.172,1.171,1.172,3.07,0,4.242l-31.82,31.82     C33.23,58.14,31.331,58.14,30.159,56.969z M74.707,33.634l-31.82,31.82c-1.171,1.171-3.071,1.171-4.243,0     c-1.171-1.172-1.171-3.071,0-4.243l31.82-31.819c1.172-1.172,3.07-1.172,4.242,0C75.879,30.563,75.879,32.462,74.707,33.634z      M82.485,18.784c-1.562,1.563-4.095,1.563-5.657,0c-1.563-1.562-1.563-4.095,0-5.656c1.563-1.563,4.096-1.563,5.657,0     C84.047,14.689,84.047,17.223,82.485,18.784z"></path></g></g></g><g enable-background="new    "><g><g><path d="M47.13,88.081l12.728,5.657c0,0,3.536,2.121,6.364-3.536l18.385-39.598L47.13,88.081z"></path></g></g></g></svg>