<?xml version="1.0" encoding="utf-8"?>
<!-- Generator: Adobe Illustrator 18.1.1, SVG Export Plug-In . SVG Version: 6.00 Build 0)  -->
<svg version="1.1" id="Layer_1" xmlns="http://www.w3.org/2000/svg" xmlns:xlink="http://www.w3.org/1999/xlink" x="0px" y="0px"
	 viewBox="0 0 16 16" enable-background="new 0 0 16 16" xml:space="preserve">
<path d="M11.1,13H4.9C4.4,13,4,12.6,4,12.2V5.9C4,5.4,4.4,5,4.9,5h6.3C11.6,5,12,5.4,12,5.9v6.3
	C12,12.6,11.6,13,11.1,13z"/>
<path d="M12.4,4H3.6C3.3,4,3,3.7,3,3.4V2.6C3,2.3,3.3,2,3.6,2h8.8C12.7,2,13,2.3,13,2.6v0.8C13,3.7,12.7,4,12.4,4z"
	/>
<path d="M8.9,3H7.1C6.8,3,6.5,2.7,6.5,2.4V1.6C6.5,1.3,6.8,1,7.1,1h1.8c0.3,0,0.6,0.3,0.6,0.6v0.8
	C9.5,2.7,9.2,3,8.9,3z"/>
<g>
</g>
<g>
</g>
<g>
</g>
<g>
</g>
<g>
</g>
<g>
</g>
<g>
</g>
<g>
</g>
<g>
</g>
<g>
</g>
<g>
</g>
<g>
</g>
<g>
</g>
<g>
</g>
<g>
</g>
</svg>
